<svg xmlns="http://www.w3.org/2000/svg" width="24" height="24">
    <path fill-rule="evenodd"
          d="m11.443 19.478-4.328 2.378c-.584.321-1.307.086-1.615-.524a1.3 1.3 0 0 1-.12-.793l.827-5.037a1.285 1.285 0 0 0-.344-1.106L2.36 10.83a1.29 1.29 0 0 1-.021-1.767c.183-.197.424-.325.684-.364l4.839-.735c.39-.06.726-.315.9-.684l2.165-4.582c.292-.619 1.009-.873 1.601-.568.236.122.427.321.543.568l2.164 4.582c.175.369.511.625.901.684l4.839.735c.654.099 1.106.733 1.011 1.416a1.27 1.27 0 0 1-.348.715l-3.502 3.567c-.282.287-.41.7-.344 1.106l.827 5.037c.112.68-.326 1.326-.977 1.443a1.15 1.15 0 0 1-.758-.126l-4.328-2.378a1.15 1.15 0 0 0-1.114 0Zm-.963-1.753a3.15 3.15 0 0 1 3.04 0l2.87 1.578-.57-3.477a3.285 3.285 0 0 1 .89-2.831l2.497-2.543-3.37-.512a3.2 3.2 0 0 1-2.409-1.807L12 5.11l-1.428 3.023A3.2 3.2 0 0 1 8.163 9.94l-3.37.512 2.497 2.543c.731.745 1.06 1.8.89 2.831l-.57 3.477 2.87-1.578Z"/>
</svg>
